<svg width="40" height="36" viewBox="0 0 40 36" fill="none" xmlns="http://www.w3.org/2000/svg">
<path d="M19.117 17.3964C19.6031 17.9102 20.3947 17.9102 20.8877 17.3964L28.4498 9.46625C30.6441 7.16082 30.5191 3.34159 28.061 1.21671C25.9222 -0.637357 22.7349 -0.304042 20.7766 1.7514L19.9989 2.56385L19.2281 1.75834C17.2699 -0.304042 14.0826 -0.637357 11.9438 1.21671C9.49253 3.34159 9.36059 7.16082 11.5549 9.46625L19.117 17.3964ZM39.2548 22.785C38.4354 22.0419 37.1577 22.0906 36.2966 22.785L29.8803 27.9166C29.0956 28.5485 28.1165 28.8888 27.1027 28.8888H18.8878C18.2768 28.8888 17.7768 28.3888 17.7768 27.7777C17.7768 27.1667 18.2768 26.6667 18.8878 26.6667H24.325C25.4292 26.6667 26.4569 25.9098 26.6374 24.8196C26.8666 23.4308 25.7972 22.2225 24.4431 22.2225H13.3326C11.4577 22.2225 9.6453 22.8683 8.18705 24.0488L4.95806 26.6667H1.11105C0.499972 26.6667 0 27.1667 0 27.7777V34.444C0 35.0551 0.499972 35.5551 1.11105 35.5551H25.8875C26.8943 35.5551 27.8735 35.2148 28.6651 34.5829L39.1645 26.1806C40.22 25.3404 40.3033 23.7294 39.2548 22.785Z" fill="white"/>
</svg>
