<svg width="36" height="40" viewBox="0 0 36 40" fill="none" xmlns="http://www.w3.org/2000/svg">
<path d="M34.4011 26.9688L31.7605 25.4453L33.7917 24.8984C34.4323 24.7266 34.8151 24.0625 34.6433 23.4219L34.3308 22.2578C34.1589 21.6172 33.4948 21.2344 32.8542 21.4062L27.323 22.8906L22.3308 20L27.3151 17.1172L32.8464 18.6016C33.487 18.7734 34.1511 18.3906 34.323 17.75L34.6355 16.5859C34.8073 15.9453 34.4245 15.2812 33.7839 15.1094L31.7526 14.5625L34.3933 13.0391C34.9714 12.7031 35.1667 11.9688 34.8386 11.3906L33.6276 9.29688C33.2917 8.71875 32.5573 8.52344 31.9792 8.85156L29.3386 10.375L29.8855 8.34375C30.0573 7.70313 29.6745 7.03906 29.0339 6.86719L27.8698 6.55469C27.2292 6.38281 26.5651 6.76563 26.3933 7.40625L24.9089 12.9375L20.0026 15.7656V9.71094L24.198 5.51562C24.6823 5.03125 24.6823 4.23438 24.198 3.75L23.3151 2.86719C22.8308 2.38281 22.0339 2.38281 21.5495 2.86719L20.0026 4.40625V1.25C20.0026 0.5625 19.4401 0 18.7526 0H16.2526C15.5651 0 15.0026 0.5625 15.0026 1.25V4.40625L13.4636 2.86719C12.9792 2.38281 12.1823 2.38281 11.698 2.86719L10.8073 3.75C10.3151 4.23438 10.3151 5.03125 10.8073 5.51562L15.0026 9.71094V15.7656L10.0964 12.9375L8.61202 7.40625C8.44015 6.76563 7.77608 6.38281 7.13546 6.55469L5.9714 6.86719C5.33077 7.03906 4.94796 7.70313 5.11983 8.34375L5.66671 10.375L3.02608 8.85156C2.44796 8.51562 1.71358 8.71875 1.37765 9.29688L0.166709 11.3828C-0.169228 11.9609 0.0338968 12.6953 0.612022 13.0312L3.25265 14.5547L1.2214 15.1016C0.572959 15.2734 0.190147 15.9375 0.362022 16.5859L0.674522 17.75C0.846397 18.3906 1.51046 18.7734 2.15108 18.6016L7.68233 17.1172L12.6667 20L7.68233 22.8828L2.15108 21.3984C1.51046 21.2266 0.846397 21.6094 0.674522 22.25L0.362022 23.4141C0.190147 24.0547 0.572959 24.7188 1.21358 24.8906L3.24483 25.4375L0.604209 26.9688C0.0260843 27.3047 -0.169228 28.0391 0.158897 28.6172L1.36983 30.7109C1.70577 31.2891 2.44015 31.4844 3.01827 31.1562L5.6589 29.6328L5.11202 31.6641C4.94015 32.3047 5.32296 32.9688 5.96358 33.1406L7.12765 33.4531C7.76827 33.625 8.43233 33.2422 8.60421 32.6016L10.0886 27.0703L14.9948 24.2422V30.2969L10.7995 34.4922C10.3073 34.9766 10.3073 35.7734 10.7995 36.2578L11.6823 37.1406C12.1667 37.625 12.9636 37.625 13.448 37.1406L14.987 35.6016V38.75C14.987 39.4375 15.5495 40 16.237 40H18.737C19.4245 40 19.987 39.4375 19.987 38.75V35.5938L21.5261 37.1328C22.0105 37.6172 22.8073 37.6172 23.2917 37.1328L24.1745 36.25C24.6589 35.7656 24.6589 34.9688 24.1745 34.4844L20.0026 30.2891V24.2344L24.9089 27.0625L26.3933 32.5938C26.5651 33.2344 27.2292 33.6172 27.8698 33.4453L29.0339 33.1328C29.6745 32.9609 30.0573 32.2969 29.8855 31.6562L29.3386 29.625L31.9792 31.1484C32.5573 31.4844 33.2917 31.2812 33.6276 30.7031L34.8386 28.6094C35.1745 28.0391 34.9792 27.2969 34.4011 26.9688Z" fill="white"/>
</svg>
